# xmcd CD database file
#
# Track frame offsets:
#	150
#	25055
#	45142
#	64832
#	85852
#	90986
#	111762
#	133995
#	152146
#	174813
#	193270
#	213913
#
# Disc length: 3068 seconds
#
# Revision: 0
# Processed by: cddbd v1.5.1PL2 Copyright (c) Steve Scherf et al.
# Submitted via: CDex 1.51
#
DISCID=930bfa0c
DTITLE=Kalmah - The Black Waltz
DYEAR=2006
DGENRE=Heavy Metal
TTITLE0=Defeat
TTITLE1=Bitter Metallic Side
TTITLE2=Time Takes Us All
TTITLE3=To The Gallows
TTITLE4=Svieri Doroga
TTITLE5=The Black Waltz
TTITLE6=With Terminal Intensity
TTITLE7=Man Of The King
TTITLE8=The Groan Of Wind
TTITLE9=Mindrust
TTITLE10=One From The Stands
TTITLE11=This Mortal Coil
EXTD=YEAR: 2006
EXTT0=
EXTT1=
EXTT2=
EXTT3=
EXTT4=
EXTT5=
EXTT6=
EXTT7=
EXTT8=
EXTT9=
EXTT10=
EXTT11=
PLAYORDER=
